# xmcd
#
# Track frame offsets: 
#        150
#        18580
#        33121
#        48278
#        64081
#        82509
#        98790
#        113780
#        129510
#        147604
#
# Disc length: 2172 seconds
#
# Revision: 0
# Processed by: cddbd v1.5.2PL0 Copyright (c) Steve Scherf et al.
# Submitted via: ExactAudioCopy v1.3
#
DISCID=7a087a0a
DTITLE=Instrumental - A Country Christmas
DYEAR=1998
DGENRE=
TTITLE0=Let It Snow
TTITLE1=Rudolph The Red Nosed Reindeer
TTITLE2=I Saw Mommy Kissing Santa Claus
TTITLE3=Away In A Manger
TTITLE4=God Rest Ye Merry Gentlemen
TTITLE5=Jingle Bells
TTITLE6=Angels We Have Heard On High
TTITLE7=Deck The Halls
TTITLE8=Good King Wenceslas
TTITLE9=Jingle Bell Rock
EXTD=
EXTT0=
EXTT1=
EXTT2=
EXTT3=
EXTT4=
EXTT5=
EXTT6=
EXTT7=
EXTT8=
EXTT9=
PLAYORDER=
